<?xml version="1.0" encoding="UTF-8" standalone="no"?>
<!-- Created with Inkscape (http://www.inkscape.org/) -->

<svg
   width="500"
   height="500"
   viewBox="0 0 132.29166 132.29166"
   version="1.1"
   id="svg5"
   inkscape:version="1.1 (c4e8f9e, 2021-05-24)"
   sodipodi:docname="logo_lovify.svg"
   xmlns:inkscape="http://www.inkscape.org/namespaces/inkscape"
   xmlns:sodipodi="http://sodipodi.sourceforge.net/DTD/sodipodi-0.dtd"
   xmlns="http://www.w3.org/2000/svg"
   xmlns:svg="http://www.w3.org/2000/svg">
  <sodipodi:namedview
     id="namedview7"
     pagecolor="#ffffff"
     bordercolor="#666666"
     borderopacity="1.0"
     inkscape:pageshadow="2"
     inkscape:pageopacity="0"
     inkscape:pagecheckerboard="false"
     inkscape:document-units="mm"
     showgrid="false"
     width="500px"
     units="mm"
     inkscape:zoom="0.47571549"
     inkscape:cx="721.0192"
     inkscape:cy="285.88516"
     inkscape:window-width="1383"
     inkscape:window-height="756"
     inkscape:window-x="0"
     inkscape:window-y="25"
     inkscape:window-maximized="0"
     inkscape:current-layer="layer1" />
  <defs
     id="defs2" />
  <g
     inkscape:label="Ebene 1"
     inkscape:groupmode="layer"
     id="layer1">
    <g
       aria-label=" "
       transform="scale(0.88019329,1.1361141)"
       id="text2539"
       style="font-size:22.9561px;line-height:1.25;font-family:'.Arabic UI Text';-inkscape-font-specification:'.Arabic UI Text';stroke-width:0.573902" />
    <ellipse
       style="fill:#f9f9f9;stroke-width:0.216568"
       id="path54316"
       cx="29.47753"
       cy="64.516861"
       rx="22.247189"
       ry="20.57865" />
  </g>
  <text
     xml:space="preserve"
     style="font-style:normal;font-weight:normal;font-size:36.1668px;line-height:1.25;font-family:sans-serif;fill:#000000;fill-opacity:1;stroke:none;stroke-width:0.271251"
     x="10.145804"
     y="70.155952"
     id="text42813"
     transform="scale(0.98938628,1.0107276)"><tspan
       sodipodi:role="line"
       id="tspan42811"
       style="font-style:normal;font-variant:normal;font-weight:normal;font-stretch:normal;font-size:36.1668px;font-family:'Brush Script MT';-inkscape-font-specification:'Brush Script MT';fill:#008080;stroke-width:0.271251"
       x="10.145804"
       y="70.155952">Lovi  y</tspan></text>
  <path
     style="fill:#008080;stroke-width:0.264583"
     id="path51750"
     d="m 59.553898,68.273847 c 3.03753,-1.639792 5.964774,-3.499059 8.585393,-5.751306 2.096198,-1.866791 3.941775,-3.981548 5.821079,-6.059294 2.671323,-3.11858 5.027787,-6.473105 7.156331,-9.979517 2.024673,-3.344775 3.982278,-6.749518 5.320847,-10.436114 0.867823,-2.390095 0.868514,-2.691241 1.432013,-5.083974 0.359164,-2.483628 0.532907,-5.701059 -2.012696,-7.15568 -0.320339,-0.183051 -0.692941,-0.253641 -1.039411,-0.380461 -2.411732,-0.243386 -3.602468,0.813123 -5.79769,2.606263 -0.716886,0.585579 -0.807252,4.102732 -0.850588,4.820468 -0.07899,5.564478 0.08869,11.129263 0.150826,16.693454 0.0649,5.212185 -0.740325,10.369142 -1.584195,15.495272 -0.816798,4.680246 -2.058644,9.292423 -4.210312,13.55036 -0.412668,0.816631 -0.899552,1.593593 -1.349328,2.390391 -2.154922,3.324196 -4.833487,6.350294 -8.254968,8.41397 -0.39429,0.237818 0.737992,-0.550876 1.106988,-0.826312 -5.997263,2.156227 -12.462436,2.246378 -18.76208,2.430444 -3.997344,-0.0072 -8.011285,0.01389 -11.977174,-0.556507 -1.894946,-0.272536 -2.91215,-0.515791 -4.772954,-0.905594 -3.358062,-0.817745 -6.441645,-2.074537 -8.79548,-4.663948 -0.938953,-1.467342 -1.6657,-2.765433 -0.317715,-4.205063 0.933109,-0.648991 3.052399,-2.10249 -2.15332,1.21638 -0.200154,0.127606 0.430206,-0.201229 0.650004,-0.290862 0.739197,-0.301442 1.491079,-0.512971 2.264362,-0.704064 1.22933,-0.288023 2.487566,-0.378706 3.745394,-0.419439 0.500834,-7.93e-4 1.019833,-0.08849 1.476712,0.157486 0,0 3.350261,-2.15487 3.350261,-2.15487 v 0 c -0.506664,-0.361201 -1.027753,-0.388655 -1.640091,-0.33133 -1.277778,0.02841 -2.558359,0.09486 -3.810901,0.370795 -2.742755,0.583703 -5.423841,1.781461 -7.504796,3.70776 -1.106753,1.674492 -0.431917,3.136706 0.614273,4.671414 2.467014,2.670604 5.528193,3.935709 9.020141,4.802196 1.868989,0.393689 2.908314,0.642926 4.812317,0.918723 3.997068,0.578974 8.040283,0.540522 12.069135,0.557503 6.297957,-0.172709 12.74046,-0.241226 18.779675,-2.242968 1.790989,-0.973793 3.614243,-1.890461 5.372971,-2.921381 3.442681,-2.018011 6.00148,-5.269989 8.144644,-8.552164 0.4429,-0.80582 0.921698,-1.592932 1.328701,-2.417466 2.121723,-4.298344 3.359795,-8.934355 4.175133,-13.639567 0.851622,-5.144971 1.67015,-10.322221 1.55666,-15.556023 -0.09878,-5.561608 -0.255177,-11.128354 -0.0829,-16.689486 0.125124,-1.354343 0.116097,-2.356257 0.564258,-3.623289 0.122632,-0.346705 0.878197,-1.04117 0.516462,-0.974913 -1.005446,0.184161 -1.840503,0.891747 -2.737578,1.38174 -0.239802,0.130984 0.493303,-0.25212 0.761847,-0.302571 0.299881,-0.05634 0.610198,-0.0083 0.915294,-0.01251 0.323609,0.08793 0.669787,0.11604 0.97083,0.26378 2.495299,1.224592 2.226112,4.447355 1.910705,6.711029 -0.549426,2.339597 -0.557205,2.678422 -1.418884,5.013933 -1.355773,3.674716 -3.332782,7.068453 -5.378437,10.393582 -2.179476,3.490053 -4.554212,6.851656 -7.268358,9.951564 -1.884034,2.079017 -3.751545,4.181994 -5.874715,6.024912 -1.200045,0.991015 -2.453315,1.921502 -3.74191,2.795542 -0.269478,0.182785 -1.107924,0.683379 -0.821169,0.529104 0.897491,-0.482852 1.770129,-1.010542 2.655192,-1.515812 0,0 -3.070796,2.484419 -3.070796,2.484419 z" />
</svg>
