<?xml version="1.0" encoding="UTF-8" standalone="no"?>
<!-- Created with Inkscape (http://www.inkscape.org/) -->

<svg
   width="400"
   height="250"
   viewBox="0 0 105.83333 66.145832"
   version="1.1"
   id="svg5"
   sodipodi:docname="logo_lovify.svg"
   inkscape:export-filename="/Users/niko/git/hokifycodechallenge/hokifychallenge/src/assets/logo_lovify.png"
   inkscape:export-xdpi="96"
   inkscape:export-ydpi="96"
   inkscape:version="1.1 (c4e8f9e, 2021-05-24)"
   xmlns:inkscape="http://www.inkscape.org/namespaces/inkscape"
   xmlns:sodipodi="http://sodipodi.sourceforge.net/DTD/sodipodi-0.dtd"
   xmlns="http://www.w3.org/2000/svg"
   xmlns:svg="http://www.w3.org/2000/svg">
  <sodipodi:namedview
     id="namedview7"
     pagecolor="#ffffff"
     bordercolor="#666666"
     borderopacity="1.0"
     inkscape:pageshadow="2"
     inkscape:pageopacity="0"
     inkscape:pagecheckerboard="false"
     inkscape:document-units="mm"
     showgrid="false"
     width="400px"
     units="mm"
     inkscape:zoom="1.2800098"
     inkscape:cx="202.73282"
     inkscape:cy="207.8109"
     inkscape:window-width="1383"
     inkscape:window-height="756"
     inkscape:window-x="0"
     inkscape:window-y="25"
     inkscape:window-maximized="0"
     inkscape:current-layer="svg5" />
  <defs
     id="defs2" />
  <g
     inkscape:label="Ebene 1"
     inkscape:groupmode="layer"
     id="layer1">
    <g
       aria-label=" "
       transform="scale(0.88019329,1.1361141)"
       id="text2539"
       style="font-size:22.9561px;line-height:1.25;font-family:'.Arabic UI Text';-inkscape-font-specification:'.Arabic UI Text';stroke-width:0.573902" />
    <ellipse
       style="fill:#f9f9f9;stroke-width:0.216568"
       id="path54316"
       cx="25.756855"
       cy="28.963749"
       rx="22.247189"
       ry="20.57865" />
  </g>
  <text
     xml:space="preserve"
     style="font-style:normal;font-weight:normal;font-size:36.1668px;line-height:1.25;font-family:sans-serif;fill:#000000;fill-opacity:1;stroke:none;stroke-width:0.271251"
     x="2.4157062"
     y="40.297459"
     id="text42813"
     transform="scale(0.98938627,1.0107276)"><tspan
       sodipodi:role="line"
       id="tspan42811"
       style="font-style:normal;font-variant:normal;font-weight:normal;font-stretch:normal;font-size:36.1668px;font-family:'Brush Script MT';-inkscape-font-specification:'Brush Script MT';fill:#008080;stroke-width:0.271251"
       x="2.4157062"
       y="40.297459">Lovi  y</tspan></text>
  <path
     style="fill:#008080;stroke-width:0.228766"
     id="path51750"
     d="m 49.014874,40.539185 c 2.542137,-1.464764 4.991974,-3.125577 7.185194,-5.137424 1.754328,-1.667534 3.298909,-3.556566 4.871716,-5.412538 2.235655,-2.785709 4.207802,-5.782179 5.989199,-8.914324 1.694468,-2.987761 3.332806,-6.029089 4.453066,-9.322186 C 72.240338,9.6177321 72.240916,9.3487297 72.712514,7.2113921 73.013102,4.9928612 73.158509,2.1188519 71.02807,0.81949406 70.759975,0.65598157 70.448141,0.59292615 70.158178,0.47964273 68.139776,0.26223525 67.143239,1.2059746 65.306037,2.8077187 c -0.599968,0.5230756 -0.675596,3.6648151 -0.711865,4.3059415 -0.06611,4.9705378 0.07422,9.9413488 0.126229,14.9116298 0.05432,4.655847 -0.619586,9.262362 -1.325828,13.84134 -0.683586,4.180686 -1.722898,8.30057 -3.52365,12.104024 -0.345365,0.729464 -0.752843,1.423495 -1.129265,2.135245 -1.803473,2.969378 -4.04519,5.672477 -6.908658,7.515881 -0.329986,0.212434 0.617632,-0.492077 0.926448,-0.738113 -5.019165,1.926075 -10.429927,2.006603 -15.702158,2.171023 -3.345415,-0.0064 -6.704718,0.01241 -10.023807,-0.497107 -1.585899,-0.243446 -2.437206,-0.460737 -3.99453,-0.808933 -2.810393,-0.73046 -5.391071,-1.853105 -7.361018,-4.166128 -0.785819,-1.31072 -1.394041,-2.470256 -0.2659,-3.756223 0.780929,-0.579719 2.554582,-1.878075 -1.802133,1.086546 -0.16751,0.113986 0.360043,-0.17975 0.543995,-0.259816 0.61864,-0.269267 1.247898,-0.458217 1.895066,-0.628914 1.028837,-0.25728 2.081866,-0.338283 3.134555,-0.374669 0.419152,-7.08e-4 0.853507,-0.07904 1.235872,0.140677 0,0 2.803866,-1.924864 2.803866,-1.924864 v 0 c -0.424033,-0.322648 -0.860136,-0.347171 -1.372608,-0.295965 -1.069384,0.02538 -2.141113,0.08473 -3.189378,0.331218 -2.295437,0.521399 -4.539263,1.591311 -6.280833,3.312001 -0.926251,1.49576 -0.361475,2.801901 0.514091,4.172797 2.064667,2.38555 4.626595,3.51562 7.549039,4.28962 1.564174,0.351668 2.433995,0.574301 4.027473,0.820661 3.345183,0.517175 6.728987,0.482827 10.10077,0.497996 5.270819,-0.154274 10.66261,-0.215478 15.716883,-2.003559 1.498896,-0.869852 3.024794,-1.688676 4.49669,-2.609559 2.881211,-1.802612 5.022693,-4.707481 6.816328,-7.639324 0.370666,-0.719809 0.771377,-1.422905 1.112002,-2.159431 1.775689,-3.839547 2.811843,-7.98072 3.494206,-12.183708 0.712732,-4.595808 1.397765,-9.220449 1.302785,-13.895607 -0.08267,-4.967973 -0.21356,-9.940536 -0.06938,-14.9080848 0.104718,-1.2097832 0.09716,-2.1047551 0.472233,-3.2365468 0.102633,-0.3096985 0.734971,-0.9300378 0.432232,-0.8708529 -0.841467,0.164504 -1.540334,0.7965638 -2.291104,1.2342561 -0.200693,0.117003 0.412849,-0.2252093 0.637596,-0.2702753 0.250974,-0.050327 0.51068,-0.00741 0.766018,-0.011175 0.270831,0.078544 0.560552,0.1036542 0.812497,0.2356247 2.088339,1.0938818 1.863054,3.9726539 1.599087,5.9947082 -0.45982,2.0898728 -0.46633,2.3925328 -1.187477,4.4787558 -1.13466,3.282485 -2.789237,6.313981 -4.501263,9.284193 -1.824025,3.117533 -3.811463,6.120325 -6.082957,8.889356 -1.576765,1.857106 -3.139702,3.735617 -4.916602,5.381825 -1.004329,0.885236 -2.053203,1.716405 -3.13164,2.497152 -0.225529,0.163275 -0.927233,0.610437 -0.687243,0.472628 0.751117,-0.431313 1.481436,-0.902679 2.222154,-1.354017 0,0 -2.569978,2.219238 -2.569978,2.219238 z" />
  <circle
     id="path63865"
     style="fill:#008080;stroke:#008080;stroke-width:0.264583"
     cx="79.787796"
     cy="45.474907"
     r="0.02753279" />
  <circle
     id="path63867"
     style="fill:#008080;stroke:#008080;stroke-width:0.264583"
     cx="79.787796"
     cy="45.474907"
     r="0.02753279" />
</svg>
